<?xml version="1.0" encoding="UTF-8"?><svg id="a" xmlns="http://www.w3.org/2000/svg" viewBox="0 0 40 30"><defs><style>.b{fill:#8ea0a3;}</style></defs><rect class="b" x="19" y="27" width="2" height="4" transform="translate(49 9) rotate(90)"/><rect class="b" x="38" y="10" width="2" height="2" transform="translate(50 -28) rotate(90)"/><rect class="b" x="34" y="10" width="6" height="2" transform="translate(48 -26) rotate(90)"/><rect class="b" x="33" y="7" width="4" height="2" transform="translate(43 -27) rotate(90)"/><rect class="b" x="33" y="13" width="4" height="2" transform="translate(49 -21) rotate(90)"/><rect class="b" x="31" y="15" width="4" height="2" transform="translate(49 -17) rotate(90)"/><rect class="b" x="16" y="26" width="8" height="2" transform="translate(40 54) rotate(-180)"/><rect class="b" x="8" y="2" width="24" height="2" transform="translate(40 6) rotate(-180)"/><rect class="b" x="14" y="4" width="12" height="2" transform="translate(40 10) rotate(-180)"/><rect class="b" x="10" y="0" width="20" height="2" transform="translate(40 2) rotate(-180)"/><rect class="b" x="10" y="10" width="18" height="4" transform="translate(38 24) rotate(-180)"/><rect class="b" x="12" y="18" width="16" height="2" transform="translate(40 38) rotate(-180)"/><rect class="b" x="12" y="16" width="4" height="2" transform="translate(28 34) rotate(-180)"/><rect class="b" x="26" y="16" width="4" height="2" transform="translate(56 34) rotate(-180)"/><rect class="b" x="26" y="14" width="4" height="2" transform="translate(56 30) rotate(-180)"/><rect class="b" x="12" y="6" width="4" height="6" transform="translate(28 18) rotate(-180)"/><rect class="b" x="31" y="5" width="4" height="2" transform="translate(39 -27) rotate(90)"/><rect class="b" x="0" y="10" width="2" height="2" transform="translate(12 10) rotate(90)"/><rect class="b" x="0" y="10" width="6" height="2" transform="translate(14 8) rotate(90)"/><rect class="b" x="3" y="7" width="4" height="2" transform="translate(13 3) rotate(90)"/><rect class="b" x="3" y="13" width="4" height="2" transform="translate(19 9) rotate(90)"/><rect class="b" x="5" y="15" width="4" height="2" transform="translate(23 9) rotate(90)"/><rect class="b" x="7" y="17" width="4" height="2" transform="translate(27 9) rotate(90)"/><rect class="b" x="9" y="19" width="4" height="2" transform="translate(31 9) rotate(90)"/><rect class="b" x="11" y="21" width="4" height="2" transform="translate(35 9) rotate(90)"/><rect class="b" x="13" y="23" width="4" height="2" transform="translate(39 9) rotate(90)"/><rect class="b" x="15" y="25" width="4" height="2" transform="translate(43 9) rotate(90)"/><rect class="b" x="21" y="25" width="4" height="2" transform="translate(49 3) rotate(90)"/><rect class="b" x="7" y="3" width="4" height="2" transform="translate(13 -5) rotate(90)"/><rect class="b" x="29" y="3" width="4" height="2" transform="translate(35 -27) rotate(90)"/><rect class="b" x="29" y="17" width="4" height="2" transform="translate(49 -13) rotate(90)"/><rect class="b" x="27" y="19" width="4" height="2" transform="translate(49 -9) rotate(90)"/><rect class="b" x="25" y="21" width="4" height="2" transform="translate(49 -5) rotate(90)"/><rect class="b" x="23" y="23" width="4" height="2" transform="translate(49 -1) rotate(90)"/><rect class="b" x="13" y="5" width="4" height="2" transform="translate(21 -9) rotate(90)"/><rect class="b" x="24" y="4" width="2" height="2" transform="translate(30 -20) rotate(90)"/><rect class="b" x="26" y="6" width="2" height="2" transform="translate(34 -20) rotate(90)"/><rect class="b" x="28" y="12" width="2" height="2" transform="translate(42 -16) rotate(90)"/><rect class="b" x="5" y="5" width="4" height="2" transform="translate(13 -1) rotate(90)"/></svg>
