<svg id="Layer_1" xmlns="http://www.w3.org/2000/svg" width="60" height="60" version="1.1" viewBox="0 0 60 60">
  <defs>
    <style>
      .st0 {
        fill: #8ea0a3;
      }
    </style>
  </defs>
  <rect class="st0" x="28.7" y="18" width="2.7" height="2.7"/>
  <rect class="st0" x="26" y="15.3" width="2.7" height="2.7"/>
  <rect class="st0" x="31.3" y="15.3" width="2.7" height="2.7"/>
  <rect class="st0" x="42" y="15.3" width="5.3" height="2.7"/>
  <rect class="st0" x="12.7" y="15.3" width="5.3" height="2.7"/>
  <rect class="st0" x="28.7" y="44.7" width="2.7" height="2.7"/>
  <rect class="st0" x="26" y="42" width="2.7" height="2.7"/>
  <rect class="st0" x="31.3" y="42" width="2.7" height="2.7"/>
  <rect class="st0" x="34" y="39.3" width="2.7" height="2.7"/>
  <rect class="st0" x="23.3" y="39.3" width="2.7" height="2.7"/>
  <rect class="st0" x="20.7" y="36.7" width="2.7" height="2.7"/>
  <rect class="st0" x="18" y="34" width="2.7" height="2.7"/>
  <rect class="st0" x="15.3" y="31.3" width="2.7" height="2.7"/>
  <rect class="st0" x="12.7" y="28.7" width="2.7" height="2.7"/>
  <rect class="st0" x="15.3" y="23.3" width="2.7" height="2.7"/>
  <rect class="st0" x="12.7" y="18" width="2.7" height="8"/>
  <rect class="st0" x="44.7" y="20.7" width="2.7" height="8"/>
  <rect class="st0" x="28.7" y="23.3" width="2.7" height="2.7"/>
  <rect class="st0" x="28.7" y="31.3" width="2.7" height="2.7"/>
  <rect class="st0" x="39.3" y="31.3" width="2.7" height="2.7"/>
  <rect class="st0" x="42" y="28.7" width="2.7" height="2.7"/>
  <rect class="st0" x="26" y="34" width="13.3" height="2.7"/>
  <rect class="st0" x="28.7" y="36.7" width="8" height="2.7"/>
  <rect class="st0" x="12.7" y="26" width="24" height="2.7"/>
  <rect class="st0" x="15.3" y="28.7" width="18.7" height="2.7"/>
  <rect class="st0" x="36.7" y="36.7" width="2.7" height="2.7"/>
  <rect class="st0" x="39.3" y="34" width="2.7" height="2.7"/>
  <rect class="st0" x="42" y="31.3" width="2.7" height="2.7"/>
  <rect class="st0" x="44.7" y="28.7" width="2.7" height="2.7"/>
  <rect class="st0" x="47.3" y="18" width="2.7" height="10.7"/>
  <rect class="st0" x="10" y="18" width="2.7" height="10.7"/>
  <rect class="st0" x="18" y="12.7" width="8" height="2.7"/>
  <rect class="st0" x="34" y="12.7" width="8" height="2.7"/>
</svg>
