<?xml version="1.0" encoding="UTF-8"?><svg id="a" xmlns="http://www.w3.org/2000/svg" viewBox="0 0 60 60"><defs><style>.b{fill:none;}.c{fill:#8ea0a3;}</style></defs><path class="b" d="M0,0h60v60H0V0Z"/><rect class="c" x="27" y="36" width="10" height="2" transform="translate(69 5) rotate(90)"/><rect class="c" x="33" y="35" width="8" height="2" transform="translate(73 -1) rotate(90)"/><rect class="c" x="40" y="34" width="6" height="2" transform="translate(78 -8) rotate(90)"/><rect class="c" x="28" y="25" width="12" height="2" transform="translate(60 -8) rotate(90)"/><rect class="c" x="32" y="43" width="4" height="2" transform="translate(78 10) rotate(90)"/><rect class="c" x="38" y="28" width="6" height="2" transform="translate(70 -12) rotate(90)"/><rect class="c" x="36" y="22" width="6" height="2" transform="translate(62 -16) rotate(90)"/><rect class="c" x="35" y="46" width="2" height="2" transform="translate(83 11) rotate(90)"/><rect class="c" x="44" y="38" width="2" height="2" transform="translate(84 -6) rotate(90)"/><rect class="c" x="46" y="40" width="2" height="2" transform="translate(88 -6) rotate(90)"/><rect class="c" x="48" y="42" width="2" height="2" transform="translate(92 -6) rotate(90)"/><rect class="c" x="35" y="30" width="2" height="2" transform="translate(67 -5) rotate(90)"/><rect class="c" x="37" y="48" width="2" height="2" transform="translate(87 11) rotate(90)"/><rect class="c" x="35" y="17" width="2" height="4" transform="translate(55 -17) rotate(90)"/><rect class="c" x="48" y="14" width="2" height="2"/><rect class="c" x="46" y="16" width="2" height="2"/><rect class="c" x="29" y="10" width="2" height="6"/><rect class="c" x="47" y="25" width="2" height="4" transform="translate(75 -21) rotate(90)"/><rect class="c" x="11" y="25" width="2" height="4" transform="translate(39 15) rotate(90)"/><rect class="c" x="12" y="16" width="2" height="2"/><rect class="c" x="14" y="18" width="2" height="2"/><rect class="c" x="18" y="12" width="2" height="2"/><rect class="c" x="20" y="14" width="2" height="2"/><rect class="c" x="44" y="18" width="2" height="2"/><rect class="c" x="40" y="12" width="2" height="2"/><rect class="c" x="38" y="14" width="2" height="2"/><rect class="c" x="10" y="14" width="2" height="2" transform="translate(22 30) rotate(-180)"/><rect class="c" x="23" y="36" width="10" height="2" transform="translate(65 9) rotate(90)"/><rect class="c" x="19" y="35" width="8" height="2" transform="translate(59 13) rotate(90)"/><rect class="c" x="14" y="34" width="6" height="2" transform="translate(52 18) rotate(90)"/><rect class="c" x="20" y="25" width="12" height="2" transform="translate(52 0) rotate(90)"/><rect class="c" x="24" y="43" width="4" height="2" transform="translate(70 18) rotate(90)"/><rect class="c" x="16" y="28" width="6" height="2" transform="translate(48 10) rotate(90)"/><rect class="c" x="18" y="22" width="6" height="2" transform="translate(44 2) rotate(90)"/><rect class="c" x="23" y="46" width="2" height="2" transform="translate(71 23) rotate(90)"/><rect class="c" x="14" y="38" width="2" height="2" transform="translate(54 24) rotate(90)"/><rect class="c" x="12" y="40" width="2" height="2" transform="translate(54 28) rotate(90)"/><rect class="c" x="10" y="42" width="2" height="2" transform="translate(54 32) rotate(90)"/><rect class="c" x="23" y="30" width="2" height="2" transform="translate(55 7) rotate(90)"/><rect class="c" x="21" y="48" width="2" height="2" transform="translate(71 27) rotate(90)"/><rect class="c" x="23" y="17" width="2" height="4" transform="translate(43 -5) rotate(90)"/></svg>
