<?xml version="1.0" encoding="UTF-8"?><svg id="a" xmlns="http://www.w3.org/2000/svg" width="30" height="26" viewBox="0 0 30 26"><defs><style>.b{fill:#8ea0a3;}</style></defs><rect class="b" x="14" y="4" width="2" height="2"/><rect class="b" x="12" y="2" width="2" height="2"/><rect class="b" x="16" y="2" width="2" height="2"/><rect class="b" x="24" y="2" width="4" height="2"/><rect class="b" x="2" y="2" width="4" height="2"/><rect class="b" x="14" y="24" width="2" height="2"/><rect class="b" x="12" y="22" width="2" height="2"/><rect class="b" x="16" y="22" width="2" height="2"/><rect class="b" x="18" y="20" width="2" height="2"/><rect class="b" x="10" y="20" width="2" height="2"/><rect class="b" x="8" y="18" width="2" height="2"/><rect class="b" x="6" y="16" width="2" height="2"/><rect class="b" x="4" y="14" width="2" height="2"/><rect class="b" x="2" y="12" width="2" height="2"/><rect class="b" x="4" y="8" width="2" height="2"/><rect class="b" x="2" y="4" width="2" height="6"/><rect class="b" x="26" y="6" width="2" height="6"/><rect class="b" x="14" y="8" width="2" height="2"/><rect class="b" x="14" y="14" width="2" height="2"/><rect class="b" x="22" y="14" width="2" height="2"/><rect class="b" x="24" y="12" width="2" height="2"/><rect class="b" x="12" y="16" width="10" height="2"/><rect class="b" x="14" y="18" width="6" height="2"/><rect class="b" x="2" y="10" width="18" height="2"/><rect class="b" x="4" y="12" width="14" height="2"/><rect class="b" x="20" y="18" width="2" height="2"/><rect class="b" x="22" y="16" width="2" height="2"/><rect class="b" x="24" y="14" width="2" height="2"/><rect class="b" x="26" y="12" width="2" height="2"/><rect class="b" x="28" y="4" width="2" height="8"/><rect class="b" y="4" width="2" height="8"/><rect class="b" x="6" width="6" height="2"/><rect class="b" x="18" width="6" height="2"/></svg>
