<?xml version="1.0" encoding="UTF-8"?><svg id="a" xmlns="http://www.w3.org/2000/svg" viewBox="0 0 40 40"><defs><style>.b{fill:#8ea0a3;}</style></defs><rect class="b" x="28" y="8" width="4" height="4"/><rect class="b" x="28" y="28" width="4" height="4"/><rect class="b" x="8" y="28" width="4" height="4"/><rect class="b" x="30" y="6" width="4" height="4"/><rect class="b" x="22" y="14" width="4" height="4"/><rect class="b" x="14" y="14" width="4" height="4"/><rect class="b" x="22" y="22" width="4" height="4"/><rect class="b" x="14" y="22" width="4" height="4"/><rect class="b" x="30" y="30" width="4" height="4"/><rect class="b" x="6" y="30" width="4" height="4"/><rect class="b" x="6" y="6" width="4" height="4"/><rect class="b" x="8" y="8" width="4" height="4"/><rect class="b" x="34" y="4" width="2" height="2"/><rect class="b" x="34" y="34" width="2" height="2"/><rect class="b" x="4" y="34" width="2" height="2"/><rect class="b" x="4" y="4" width="2" height="2"/><rect class="b" x="32" y="8" width="0" height="0" transform="translate(64 16) rotate(180)"/><rect class="b" x="14" y="12" width="12" height="4"/><rect class="b" x="14" y="24" width="12" height="4"/><rect class="b" x="20" y="18" width="12" height="4" transform="translate(46 -6) rotate(90)"/><rect class="b" x="8" y="18" width="12" height="4" transform="translate(34 6) rotate(90)"/><rect class="b" x="19" y="30" width="2" height="10" transform="translate(40 70) rotate(180)"/><rect class="b" x="19" width="2" height="10" transform="translate(40 10) rotate(180)"/><rect class="b" x="19" y="30" width="2" height="10" transform="translate(40 70) rotate(180)"/><rect class="b" x="34" y="15" width="2" height="10" transform="translate(15 55) rotate(-90)"/><rect class="b" x="4" y="15" width="2" height="10" transform="translate(-15 25) rotate(-90)"/><rect class="b" x="19" y="5" width="2" height="8" transform="translate(29 -11) rotate(90)"/><rect class="b" x="19" y="27" width="2" height="8" transform="translate(51 11) rotate(90)"/><rect class="b" x="30" y="16" width="2" height="8" transform="translate(62 40) rotate(-180)"/><rect class="b" x="8" y="16" width="2" height="8" transform="translate(18 40) rotate(-180)"/></svg>
