<?xml version="1.0" encoding="UTF-8"?><svg id="a" xmlns="http://www.w3.org/2000/svg" width="32" height="28" viewBox="0 0 32 28"><defs><style>.b{fill:#8ea0a3;}</style></defs><rect class="b" x="2" y="24" width="28" height="4"/><rect class="b" x="14" width="4" height="4"/><polygon class="b" points="28 8 28 12 26 12 26 16 24 16 24 14 24 12 26 12 26 8 24 8 22 8 22 12 22 14 20 14 20 12 18 12 18 8 20 8 20 6 18 6 14 6 12 6 12 8 14 8 14 12 12 12 12 14 10 14 10 12 10 8 8 8 6 8 6 12 8 12 8 14 8 16 6 16 6 12 4 12 4 8 0 8 0 12 2 12 2 18 4 18 4 22 8 22 12 22 14 22 18 22 20 22 24 22 28 22 28 18 30 18 30 12 32 12 32 8 28 8"/></svg>
