<svg xmlns="http://www.w3.org/2000/svg" width="60" height="60" fill="none" overflow="visible">
  <g>
    <path d="M 0 0 L 60 0 L 60 60 L 0 60 Z" fill="color(display-p3 0.9024390243902439 0.8768044714511922 0.8272357723577236)"></path>
    <!-- Sun/flower icon -->
    <path d="M 25 25 L 35 25 L 35 35 L 25 35 Z M 28 20 L 32 20 L 32 25 L 28 25 Z M 28 35 L 32 35 L 32 40 L 28 40 Z M 20 28 L 25 28 L 25 32 L 20 32 Z M 35 28 L 40 28 L 40 32 L 35 32 Z M 22 22 L 26 22 L 26 26 L 22 26 Z M 34 22 L 38 22 L 38 26 L 34 26 Z M 22 34 L 26 34 L 26 38 L 22 38 Z M 34 34 L 38 34 L 38 38 L 34 38 Z" fill="rgb(245, 249, 0)"></path>
  </g>
</svg>
