<svg id="a" xmlns="http://www.w3.org/2000/svg" viewBox="0 0 60 60"><defs><style>.b{fill:none;}.c{fill:#8ea0a3;}</style></defs><path class="b" d="M0,0h60v60H0V0Z"/><rect class="c" x="12" y="26" width="4" height="12"/><rect class="c" x="44" y="26" width="4" height="12"/><rect class="c" x="14" y="16" width="4" height="6"/><rect class="c" x="42" y="16" width="4" height="6"/><rect class="c" x="46" y="16" width="4" height="4"/><rect class="c" x="10" y="16" width="4" height="4"/><rect class="c" x="16" y="20" width="4" height="2"/><rect class="c" x="40" y="20" width="4" height="2"/><rect class="c" x="28" y="28" width="4" height="12"/><rect class="c" x="20" y="30" width="6" height="6"/><rect class="c" x="16" y="40" width="10" height="4"/><rect class="c" x="34" y="40" width="10" height="4"/><rect class="c" x="44" y="38" width="2" height="2"/><rect class="c" x="14" y="38" width="2" height="2"/><rect class="c" x="16" y="22" width="28" height="4"/><rect class="c" x="34" y="30" width="6" height="6"/><rect class="c" x="26" y="36" width="8" height="4"/><rect class="c" x="28" y="39" width="4" height="3"/><rect class="c" x="26" y="25" width="8" height="3"/></svg>
