<svg id="Layer_1" xmlns="http://www.w3.org/2000/svg" width="60" height="60" version="1.1" viewBox="0 0 60 60">
  <!-- Generator: Adobe Illustrator 30.0.0, SVG Export Plug-In . SVG Version: 2.1.1 Build 123)  -->
  <rect x="28" y="20" width="2" height="2"/>
  <rect x="26" y="18" width="2" height="2"/>
  <rect x="30" y="18" width="2" height="2"/>
  <rect x="38" y="18" width="4" height="2"/>
  <rect x="16" y="18" width="4" height="2"/>
  <rect x="28" y="40" width="2" height="2"/>
  <rect x="26" y="38" width="2" height="2"/>
  <rect x="30" y="38" width="2" height="2"/>
  <rect x="32" y="36" width="2" height="2"/>
  <rect x="24" y="36" width="2" height="2"/>
  <rect x="22" y="34" width="2" height="2"/>
  <rect x="20" y="32" width="2" height="2"/>
  <rect x="18" y="30" width="2" height="2"/>
  <rect x="16" y="28" width="2" height="2"/>
  <rect x="18" y="24" width="2" height="2"/>
  <rect x="16" y="20" width="2" height="6"/>
  <rect x="40" y="22" width="2" height="6"/>
  <rect x="28" y="24" width="2" height="2"/>
  <rect x="28" y="30" width="2" height="2"/>
  <rect x="36" y="30" width="2" height="2"/>
  <rect x="38" y="28" width="2" height="2"/>
  <rect x="26" y="32" width="10" height="2"/>
  <rect x="28" y="34" width="6" height="2"/>
  <rect x="16" y="26" width="18" height="2"/>
  <rect x="18" y="28" width="14" height="2"/>
  <rect x="34" y="34" width="2" height="2"/>
  <rect x="36" y="32" width="2" height="2"/>
  <rect x="38" y="30" width="2" height="2"/>
  <rect x="40" y="28" width="2" height="2"/>
  <rect x="42" y="20" width="2" height="8"/>
  <rect x="14" y="20" width="2" height="8"/>
  <rect x="20" y="16" width="6" height="2"/>
  <rect x="32" y="16" width="6" height="2"/>
</svg>
