<svg id="a" xmlns="http://www.w3.org/2000/svg" viewBox="0 0 60 60">
<defs><style>.b{fill:#8ea0a3;}</style></defs><rect class="b" x="24" y="2" width="4" height="2"/><rect class="b" x="28" y="4" width="4" height="2"/><rect class="b" x="12" y="2" width="4" height="2" transform="translate(28 6) rotate(180)"/><rect class="b" x="8" y="4" width="4" height="2" transform="translate(20 10) rotate(180)"/><rect class="b" x="16" width="8" height="2"/><rect class="b" x="35" y="13" width="4" height="2" transform="translate(23 51) rotate(-90)"/><rect class="b" x="33" y="9" width="4" height="2" transform="translate(25 45) rotate(-90)"/><rect class="b" x="35" y="19" width="8" height="2" transform="translate(59 -19) rotate(90)"/><rect class="b" x="21" y="19" width="8" height="2" transform="translate(45 -5) rotate(90)"/><rect class="b" x="34" y="19" width="2" height="2" transform="translate(15 55) rotate(-90)"/><rect class="b" x="10" y="8" width="2" height="2" transform="translate(2 20) rotate(-90)"/><rect class="b" x="28" y="8" width="2" height="2" transform="translate(20 38) rotate(-90)"/><rect class="b" x="10" y="30" width="2" height="2" transform="translate(-20 42) rotate(-90)"/><rect class="b" x="28" y="30" width="2" height="2" transform="translate(-2 60) rotate(-90)"/><rect class="b" x="4" y="19" width="5" height="2" transform="translate(-13.5 26.5) rotate(-90)"/><rect class="b" x="4" y="19" width="5" height="2"/><rect class="b" x="31" y="19" width="5" height="2" transform="translate(13.5 53.5) rotate(-90)"/><rect class="b" x="31" y="19" width="5" height="2"/><rect class="b" x="18" y="5" width="4" height="2" transform="translate(26 -14) rotate(90)"/><rect class="b" x="17" y="32" width="6" height="2" transform="translate(53 13) rotate(90)"/><rect class="b" x="17" y="9" width="4" height="2" transform="translate(29 -9) rotate(90)"/><rect class="b" x="15" y="13" width="4" height="2" transform="translate(31 -3) rotate(90)"/><rect class="b" x="21" y="13" width="4" height="2" transform="translate(37 -9) rotate(90)"/><rect class="b" x="15" y="25" width="4" height="2" transform="translate(43 9) rotate(90)"/><rect class="b" x="21" y="25" width="4" height="2" transform="translate(49 3) rotate(90)"/><rect class="b" x="19" y="9" width="4" height="2" transform="translate(31 -11) rotate(90)"/><rect class="b" x="17" y="29" width="4" height="2" transform="translate(49 11) rotate(90)"/><rect class="b" x="19" y="29" width="4" height="2" transform="translate(51 9) rotate(90)"/><rect class="b" x="1" y="13" width="4" height="2" transform="translate(-11 17) rotate(-90)"/><rect class="b" x="3" y="9" width="4" height="2" transform="translate(-5 15) rotate(-90)"/><rect class="b" x="6" y="6" width="2" height="2" transform="translate(0 14) rotate(-90)"/><rect class="b" x="32" y="6" width="2" height="2" transform="translate(26 40) rotate(-90)"/><rect class="b" x="12" y="36" width="4" height="2" transform="translate(28 74) rotate(180)"/><rect class="b" x="8" y="34" width="4" height="2" transform="translate(20 70) rotate(180)"/><rect class="b" x="24" y="36" width="4" height="2"/><rect class="b" x="28" y="34" width="4" height="2"/><rect class="b" x="16" y="38" width="8" height="2" transform="translate(40 78) rotate(180)"/><rect class="b" x="1" y="25" width="4" height="2" transform="translate(29 23) rotate(90)"/><rect class="b" x="3" y="29" width="4" height="2" transform="translate(35 25) rotate(90)"/><rect class="b" x="35" y="25" width="4" height="2" transform="translate(63 -11) rotate(90)"/><rect class="b" x="33" y="29" width="4" height="2" transform="translate(65 -5) rotate(90)"/><rect class="b" x="32" y="32" width="2" height="2" transform="translate(66 0) rotate(90)"/><rect class="b" x="6" y="32" width="2" height="2" transform="translate(40 26) rotate(90)"/><rect class="b" x="-3" y="19" width="8" height="2" transform="translate(-19 21) rotate(-90)"/><rect class="b" x="11" y="19" width="8" height="2" transform="translate(-5 35) rotate(-90)"/><rect class="b" x="18" y="14" width="4" height="8" transform="translate(2 38) rotate(-90)"/><rect class="b" x="18" y="12" width="4" height="4" transform="translate(6 34) rotate(-90)"/></svg>
