<?xml version="1.0" encoding="UTF-8"?><svg id="a" xmlns="http://www.w3.org/2000/svg" viewBox="0 0 60 60"><defs><style>.b{fill:none;}.c{fill:#8ea0a3;}</style></defs><path class="b" d="M0,0h60v60H0V0Z"/><rect class="c" x="38" y="28" width="4" height="2" transform="translate(80 58) rotate(180)"/><rect class="c" x="36" y="30" width="8" height="2" transform="translate(80 62) rotate(180)"/><rect class="c" x="40" y="34" width="6" height="2" transform="translate(86 70) rotate(180)"/><rect class="c" x="38" y="32" width="8" height="2" transform="translate(84 66) rotate(180)"/><rect class="c" x="42" y="34" width="4" height="4" transform="translate(88 72) rotate(180)"/><rect class="c" x="46" y="36" width="2" height="2" transform="translate(94 74) rotate(180)"/><rect class="c" x="18" y="28" width="4" height="2"/><rect class="c" x="16" y="30" width="8" height="2"/><rect class="c" x="14" y="34" width="6" height="2"/><rect class="c" x="14" y="32" width="8" height="2"/><rect class="c" x="14" y="34" width="4" height="4"/><rect class="c" x="12" y="36" width="2" height="2"/><rect class="c" x="24" y="12" width="12" height="2"/><rect class="c" x="24" y="20" width="12" height="2"/><rect class="c" x="36" y="14" width="4" height="2"/><rect class="c" x="36" y="18" width="4" height="2"/><rect class="c" x="40" y="16" width="2" height="2"/><rect class="c" x="18" y="16" width="2" height="2"/><rect class="c" x="20" y="18" width="4" height="2" transform="translate(44 38) rotate(180)"/><rect class="c" x="20" y="14" width="4" height="2" transform="translate(44 30) rotate(180)"/><rect class="c" x="44" y="26" width="2" height="2" transform="translate(90 54) rotate(180)"/><rect class="c" x="48" y="22" width="2" height="2" transform="translate(98 46) rotate(180)"/><rect class="c" x="10" y="22" width="2" height="2" transform="translate(22 46) rotate(180)"/><rect class="c" x="38" y="24" width="2" height="2" transform="translate(78 50) rotate(180)"/><rect class="c" x="20" y="24" width="2" height="2" transform="translate(42 50) rotate(180)"/><rect class="c" x="14" y="26" width="2" height="2" transform="translate(30 54) rotate(180)"/><rect class="c" x="14" y="32" width="2" height="2" transform="translate(30 66) rotate(180)"/><rect class="c" x="44" y="32" width="2" height="2" transform="translate(90 66) rotate(180)"/><rect class="c" x="34" y="30" width="2" height="2" transform="translate(70 62) rotate(180)"/><rect class="c" x="40" y="34" width="2" height="2" transform="translate(82 70) rotate(180)"/><rect class="c" x="18" y="34" width="2" height="2" transform="translate(38 70) rotate(180)"/><rect class="c" x="26" y="36" width="2" height="2" transform="translate(54 74) rotate(180)"/><rect class="c" x="32" y="36" width="2" height="2" transform="translate(66 74) rotate(180)"/><rect class="c" x="24" y="30" width="2" height="2" transform="translate(50 62) rotate(180)"/><rect class="c" x="40" y="22" width="8" height="4"/><rect class="c" x="36" y="28" width="8" height="4"/><rect class="c" x="16" y="28" width="8" height="4"/><rect class="c" x="12" y="22" width="8" height="4"/><rect class="c" x="22" y="46" width="16" height="2" transform="translate(60 94) rotate(180)"/><rect class="c" x="22" y="44" width="16" height="2" transform="translate(60 90) rotate(180)"/><rect class="c" x="24" y="40" width="12" height="4" transform="translate(60 84) rotate(180)"/><rect class="c" x="28" y="32" width="4" height="4" transform="translate(60 68) rotate(180)"/><rect class="c" x="28" y="46" width="4" height="4" transform="translate(60 96) rotate(180)"/><rect class="c" x="28" y="38" width="4" height="4" transform="translate(60 80) rotate(180)"/><rect class="c" x="26" y="34" width="2" height="6"/><rect class="c" x="32" y="34" width="2" height="6"/></svg>
