<?xml version="1.0" encoding="UTF-8"?><svg id="a" xmlns="http://www.w3.org/2000/svg" viewBox="0 0 60 60"><defs><style>.b{fill:#8ea0a3;}</style></defs><rect class="b" x="16" y="40" width="28" height="4"/><rect class="b" x="28" y="16" width="4" height="4"/><polygon class="b" points="42 24 42 28 40 28 40 32 38 32 38 30 38 28 40 28 40 24 38 24 36 24 36 28 36 30 34 30 34 28 32 28 32 24 34 24 34 22 32 22 28 22 26 22 26 24 28 24 28 28 26 28 26 30 24 30 24 28 24 24 22 24 20 24 20 28 22 28 22 30 22 32 20 32 20 28 18 28 18 24 14 24 14 28 16 28 16 34 18 34 18 38 22 38 26 38 28 38 32 38 34 38 38 38 42 38 42 34 44 34 44 28 46 28 46 24 42 24"/></svg>
