<?xml version="1.0" encoding="UTF-8"?><svg id="a" xmlns="http://www.w3.org/2000/svg" viewBox="0 0 28 40"><defs><style>.b{fill:#8ea0a3;}</style></defs><rect class="b" x="4" y="26" width="4" height="2"/><rect class="b" x="26" y="4" width="2" height="20"/><rect class="b" x="20" y="4" width="4" height="10"/><rect class="b" x="14" y="2" width="4" height="14"/><rect class="b" x="2" y="2" width="4" height="10"/><rect class="b" x="8" y="2" width="4" height="10"/><rect class="b" x="22" y="28" width="2" height="12"/><rect class="b" x="6" y="28" width="4" height="12"/><rect class="b" x="24" y="24" width="2" height="4"/><rect class="b" x="0" y="12" width="4" height="10"/><rect class="b" x="2" y="22" width="4" height="4"/><rect class="b" x="22" y="0" width="2" height="6" transform="translate(26 -20) rotate(90)"/><rect class="b" x="5" y="-1" width="2" height="4" transform="translate(7 -5) rotate(90)"/><rect class="b" x="11" y="-1" width="2" height="4" transform="translate(13 -11) rotate(90)"/><rect class="b" x="8" y="6" width="2" height="10" transform="translate(20 2) rotate(90)"/><rect class="b" x="9" y="13" width="2" height="8" transform="translate(27 7) rotate(90)"/><rect class="b" x="9" y="27" width="2" height="4" transform="translate(39 19) rotate(90)"/><rect class="b" x="19" y="27" width="2" height="4" transform="translate(49 9) rotate(90)"/><rect class="b" x="16.5" y="12.5" width="2" height="5" transform="translate(32.5 -2.5) rotate(90)"/><rect class="b" x="23.5" y="12.5" width="2" height="5" transform="translate(39.5 -9.5) rotate(90)"/><rect class="b" x="17" y="-1" width="2" height="4" transform="translate(19 -17) rotate(90)"/></svg>
