<svg id="a" xmlns="http://www.w3.org/2000/svg" viewBox="0 0 60 60">
  <defs><style>.b{fill:none;}.c{fill:#8ea0a3;}</style></defs><path class="b" d="M0,0h60v60H0V0Z"/><rect class="c" x="38" y="18" width="4" height="4"/><rect class="c" x="38" y="38" width="4" height="4"/><rect class="c" x="18" y="38" width="4" height="4"/><rect class="c" x="40" y="16" width="4" height="4"/><rect class="c" x="32" y="24" width="4" height="4"/><rect class="c" x="24" y="24" width="4" height="4"/><rect class="c" x="32" y="32" width="4" height="4"/><rect class="c" x="24" y="32" width="4" height="4"/><rect class="c" x="40" y="40" width="4" height="4"/><rect class="c" x="16" y="40" width="4" height="4"/><rect class="c" x="16" y="16" width="4" height="4"/><rect class="c" x="18" y="18" width="4" height="4"/><rect class="c" x="44" y="14" width="2" height="2"/><rect class="c" x="44" y="44" width="2" height="2"/><rect class="c" x="14" y="44" width="2" height="2"/><rect class="c" x="14" y="14" width="2" height="2"/><rect class="c" x="42" y="18" width="0" height="0" transform="translate(84 36) rotate(180)"/><rect class="c" x="24" y="22" width="12" height="4"/><rect class="c" x="24" y="34" width="12" height="4"/><rect class="c" x="30" y="28" width="12" height="4" transform="translate(66 -6) rotate(90)"/><rect class="c" x="18" y="28" width="12" height="4" transform="translate(54 6) rotate(90)"/><rect class="c" x="29" y="40" width="2" height="10" transform="translate(60 90) rotate(180)"/><rect class="c" x="29" y="10" width="2" height="10" transform="translate(60 30) rotate(180)"/><rect class="c" x="29" y="40" width="2" height="10" transform="translate(60 90) rotate(180)"/><rect class="c" x="44" y="25" width="2" height="10" transform="translate(15 75) rotate(-90)"/><rect class="c" x="14" y="25" width="2" height="10" transform="translate(-15 45) rotate(-90)"/><rect class="c" x="29" y="15" width="2" height="8" transform="translate(49 -11) rotate(90)"/><rect class="c" x="29" y="37" width="2" height="8" transform="translate(71 11) rotate(90)"/><rect class="c" x="40" y="26" width="2" height="8" transform="translate(82 60) rotate(-180)"/><rect class="c" x="18" y="26" width="2" height="8" transform="translate(38 60) rotate(-180)"/></svg>
